<svg id="Capa_1" enable-background="new 0 0 512 512" height="512" viewBox="0 0 512 512" width="512" xmlns="http://www.w3.org/2000/svg"><g><g><g><g><g><g><g><g><g><circle cx="256" cy="256" fill="#87c7ff" r="256"/></g></g></g></g></g></g></g></g><path d="m512 256c0-13.815-1.094-27.374-3.201-40.595l-111.551-111.552-59.199 13.846-16.782 50.435-54.386-54.386-65.579 3.349-28.883 81.316 109.912 109.913-35.148 7.748-30.347-30.346-131.244 65.967 160.101 160.101c3.419.135 6.855.204 10.307.204 141.385 0 256-114.615 256-256z" fill="#4a98f7"/><g><g><g><path d="m246.948 463.903c-21.884-6.092-34.686-28.77-28.595-50.655l47.076-173.76 39.625 11.03z" fill="#f2f6fc"/></g></g></g><g><path d="m265.656 277.023c-28.193.003-37.016 14.308-39.587 20.91-2.571-6.602-11.394-20.907-39.587-20.91-57.944-.006-53.688 75.669-117.521 37.795 0 0 8.937 60.003 68.618 62.131 62.995 2.246 84.021-27.321 88.49-35.203 4.469 7.882 25.495 37.449 88.49 35.203 59.681-2.128 68.618-62.131 68.618-62.131-63.833 37.874-59.578-37.801-117.521-37.795z" fill="#555a66"/></g><g><path d="m265.656 277.023c-28.193.003-37.016 14.308-39.587 20.91v43.813c4.469 7.882 25.495 37.448 88.49 35.203 59.681-2.128 68.618-62.131 68.618-62.131-63.833 37.874-59.578-37.801-117.521-37.795z" fill="#333940"/></g><g><g><path d="m372.88 90.839c-33.813-9.412-68.979 10.439-78.391 44.251l-31.333 112.562 39.625 11.03 15.367-55.205c6.035 4.439 12.958 7.878 20.593 10.003 33.812 9.412 68.978-10.44 78.39-44.252 9.412-33.811-10.439-68.977-44.251-78.389zm4.627 67.36c-3.33 11.963-15.772 18.987-27.735 15.657-11.964-3.33-18.987-15.773-15.657-27.736 3.33-11.964 15.772-18.987 27.736-15.657 11.962 3.331 18.986 15.773 15.656 27.736z" fill="#f24500"/></g></g><g><g><path d="m372.88 90.839c-33.813-9.412-68.979 10.439-78.391 44.251l-8.705 31.273v87.588l16.997 4.731 15.367-55.205c6.035 4.439 12.958 7.878 20.593 10.003 33.812 9.412 68.978-10.439 78.39-44.252 9.412-33.811-10.439-68.977-44.251-78.389zm4.627 67.36c-3.33 11.963-15.772 18.987-27.735 15.657-11.964-3.33-18.987-15.773-15.657-27.736 3.33-11.964 15.772-18.987 27.736-15.657 11.962 3.33 18.986 15.773 15.656 27.736z" fill="#d13400"/><path d="m263.157 247.652 22.627 6.299v-87.588z" fill="#f24500"/></g></g><g><g><path d="m154.803 169.229c9.412 33.813 44.578 53.664 78.39 44.252 7.635-2.125 14.558-5.564 20.593-10.003l13.094 47.04 21.607-1.478 18.018-9.552-29.06-104.398c-9.412-33.812-44.578-53.663-78.391-44.251-33.811 9.412-53.663 44.578-44.251 78.39zm55.281-38.765c11.964-3.33 24.406 3.693 27.736 15.657 3.33 11.963-3.693 24.406-15.657 27.736-11.963 3.33-24.405-3.694-27.735-15.657-3.33-11.964 3.694-24.406 15.656-27.736z" fill="#fe6a16"/></g></g><g><g><path d="m306.505 239.488-20.721-74.439v84.176l2.703-.185z" fill="#f24500"/></g></g><g><g><g><path d="m326.257 463.903c21.884-6.092 34.686-28.77 28.595-50.655l-48.347-173.76-39.625 11.03z" fill="#fff"/></g></g></g><g><g><g><path d="m354.852 413.248-48.347-173.76-20.721 5.768v73.198l40.473 145.449c21.884-6.092 34.687-28.771 28.595-50.655z" fill="#e9edf5"/></g></g></g><g><g><circle cx="281.814" cy="226.147" fill="#ffce00" r="13.341"/></g></g><g><g><path d="m295.154 226.147c0-5.985-3.941-11.049-9.37-12.739v25.479c5.429-1.691 9.37-6.755 9.37-12.74z" fill="#fdba12"/></g></g></g></svg>