<svg id="Layer_1" enable-background="new 0 0 510.013 510.013" height="512" viewBox="0 0 510.013 510.013" width="512" xmlns="http://www.w3.org/2000/svg"><g id="XMLID_415_"><path d="m352.569 180.013h60v135c-7.26 0-52.693 0-60 0v30h90c0-10.822 0-184.178 0-195-10.889 0-79.039 0-90 0z" fill="#ff9100"/><path d="m67.444 254.468v195.545h151.281l10-191.282-10-191.282-93.635 30.07z" fill="#ffda2d"/><path d="m367.444 60.013c-8.24.412-140.447 7.023-148.719 7.436v382.564h148.719c0-11.005 0-379.007 0-390z" fill="#fdbf00"/><path d="m113.725 450.013v60h105l10-30-10-30c-28.278 0-88.527 0-105 0z" fill="#fdbf00"/><path d="m323.725 450.013c-28.278 0-88.527 0-105 0v60h105c0-7.258 0-52.693 0-60z" fill="#ff9100"/><path d="m212.507 6.049c-18.822-10.893-42.953-6.787-57.092 10.187-22.621-5.35-45.4 7.289-52.935 29.064-17.688-2.378-33.453 10.485-35.036 27.905v181.263c0 16.869 13.675 30.545 30.545 30.545 16.869 0 30.545-13.676 30.545-30.545 0-10.104 0-139.351 0-149.455h76.473v60c0 10.336 5.269 19.719 13.719 25.191l10-93.56-10-93.561c-2.128.829-4.212 1.804-6.219 2.966z" fill="#fef8c9"/><path d="m265.007 165.013c0-7.26 0-52.693 0-60h60c25.514 0 45.965-21.205 44.965-46.805-1.08-27.641-27.377-48.601-55.373-41.973-13.968-16.771-38.026-21.22-57.092-10.186-11.754-6.801-25.981-7.951-38.781-2.965v187.121c2.387 1.546 5.005 2.764 7.793 3.586 19.241 5.684 38.488-8.794 38.488-28.778z" fill="#ffe1ba"/><path id="XMLID_411_" d="m173.725 449.591c-10.492 0-19.508 0-30 0 0-14.517 0-105.387 0-120h30z" fill="#fdbf00"/><path d="m203.725 329.591v120h15l10-60-10-60c-5.246 0-9.754 0-15 0z" fill="#fdbf00"/><g fill="#ff9100"><path d="m233.725 329.591c-5.246 0-9.754 0-15 0v120h15c0-14.517 0-105.386 0-120z"/><path d="m263.725 449.591h30c0-14.517 0-105.387 0-120-10.492 0-19.508 0-30 0z"/></g></g></svg>