<svg id="Capa_1" enable-background="new 0 0 512 512" height="512" viewBox="0 0 512 512" width="512" xmlns="http://www.w3.org/2000/svg"><g><circle cx="256" cy="256" fill="#e27266" r="256"/><path d="m512 256c0-3.791-.099-7.559-.262-11.309l-93.738-93.738-134.156 6.693c-.26-.263-39.808-39.806-39.808-39.806l-81.51 79.345 10.987 10.988-79.513 209.827 80.865 80.865c25.496 8.514 52.775 13.135 81.135 13.135 141.385 0 256-114.615 256-256z" fill="#c7475a"/><g><g><path d="m209.046 163.236-6.711-6.711c-7.193-7.193-19.633-7.193-26.827 0l-6.711 6.711-40.129-40.147c3.534-2.578 21.751-29.089 60.254-29.089 38.145 0 56.903 26.644 60.253 29.088z" fill="#e9f2f2"/></g><path d="m202.335 156.524 6.711 6.711 40.129-40.147c-3.35-2.444-22.108-29.088-60.253-29.088-.299 0-.594.007-.89.01-.193 13.925-.253 34.166-.23 57.155 5.273-.296 10.663 1.489 14.533 5.359z" fill="#d5e5e5"/><g><path d="m264.834 272.422c-.342-11.758-3.753-22.769-9.467-32.248-11.625-19.32-32.811-32.267-56.953-32.267h-18.984c-36.633 0-66.445 29.812-66.445 66.445v10.125h151.875v-10.125c-.001-.576-.007-1.222-.026-1.93z" fill="#e9f2f2"/></g><path d="m188.46 284.477h76.4v-10.125c0-.576-.006-1.221-.025-1.93-.342-11.758-3.753-22.769-9.467-32.248-11.625-19.32-32.811-32.267-56.953-32.267h-10.435c.131 27.055.311 54.07.48 76.57z" fill="#d5e5e5"/><g><g><path d="m341.43 236.383h18.984v37.969h-18.984z" fill="#54747f"/></g></g><path d="m350.922 236.383h9.492v37.969h-9.492z" fill="#455e72"/><g id="Reception_2_"><g><path d="m188.922 207.906c-20.94 0-37.969-17.028-37.969-37.969 0-10.122 3.949-19.661 11.133-26.836 14.349-14.368 39.322-14.368 53.672 0 7.184 7.175 11.133 16.713 11.133 26.836 0 20.941-17.029 37.969-37.969 37.969z" fill="#f7e0ba"/></g><path d="m226.891 169.938c0-10.122-3.949-19.661-11.133-26.836-7.447-7.457-17.755-11.033-27.954-10.75-.03 22.382.049 48.973.177 75.531.314.008.626.024.942.024 20.939-.001 37.968-17.029 37.968-37.969z" fill="#efbeaa"/><g><g><path d="m418 245.875h-134.156v-94.922h134.156z" fill="#54747f"/></g></g><path d="m350.922 150.953h67.078v94.922h-67.078z" fill="#455e72"/></g><g><path d="m418 418h-324v-153.141h324z" fill="#94e5cf"/></g><path d="m255.367 264.859h162.633v153.141h-162.633z" fill="#7ccbbf"/><path d="m283.844 331.938h-18.985v-18.985h-18.984v18.985h-18.984v18.984h18.984v18.984h18.984v-18.984h18.985z" fill="#e27266"/><path d="m255.367 312.953v56.953h9.492v-18.984h18.985v-18.984h-18.985v-18.985z" fill="#c7475a"/></g></g></svg>