<svg id="Capa_1" enable-background="new 0 0 512 512" height="512" viewBox="0 0 512 512" width="512" xmlns="http://www.w3.org/2000/svg"><g><g><path d="m427.463 135.983h30v97.867h-30z" fill="#c8beb9"/></g><path d="m348.781 512h62.585l15-10 15 10h62.843v-247.244l-155.428-10-10 125.244z" fill="#c8beb9"/><g><path d="m411.366 315.235h30v73.143h-30z" fill="#ebe1dc"/></g><g><path d="m411.366 449.502h30v62.498h-30z" fill="#ebe1dc"/></g><path d="m348.781 202.945 93.682.065 61.746 61.746h-176.221z" fill="#07485e"/><g><path d="m54.537 135.983h30v97.867h-30z" fill="#ebe1dc"/></g><path d="m163.219 512h-62.714l-15-10-15 10h-62.714v-247.244l155.428-10 10 125.244z" fill="#ebe1dc"/><path d="m163.219 202.945-93.682.065-61.746 61.746h165.428z" fill="#0b799d"/><g><path d="m240.936 0h30v99.928h-30z" fill="#fff5f5"/></g><g><path d="m255.936 0h15v99.928h-15z" fill="#ebe1dc"/></g><g><path d="m163.219 61.674h30v120.668h-30z" fill="#fff5f5"/></g><path d="m348.652 182.342v329.658h-185.433v-329.658l92.719-10z" fill="#fff5f5"/><path d="m348.652 182.342v329.658h-92.714v-339.658z" fill="#ebe1dc"/><g><path d="m318.652 61.674h30v120.668h-30z" fill="#ebe1dc"/></g><path d="m163.219 182.342c0-51.206 41.511-92.716 92.716-92.716s92.716 41.511 92.716 92.716z" fill="#0b799d"/><path d="m255.938 182.342c0-51.206-.002-92.716-.002-92.716 51.206 0 92.716 41.511 92.716 92.716z" fill="#07485e"/><path d="m225.03 408.982h61.811v103.018h-61.811z" fill="#b2705b"/><path d="m255.936 408.982h30.905v103.018h-30.905z" fill="#a05f4b"/><circle cx="255.936" cy="275.058" fill="#f1ced3" r="40.177"/><path d="m255.936 234.881c22.189 0 40.177 17.988 40.177 40.177s-17.988 40.177-40.177 40.177z" fill="#edc0c7"/><g><path d="m70.505 315.235h30v73.143h-30z" fill="#fff5f5"/></g><g><path d="m70.505 449.502h30v62.498h-30z" fill="#fff5f5"/></g></g></svg>