<svg height="512pt" viewBox="-6 0 512 512.001" width="512pt" xmlns="http://www.w3.org/2000/svg"><path d="m305.253906 41.917969c-18.277344-10.53125-36.554687 10.527343-54.835937 0 0-9.75 0-19.5 0-29.25 18.28125 10.53125 36.558593-10.527344 54.835937 0zm0 0" fill="#fd9c98"/><path d="m250.417969 113.140625c-4.160157 0-7.535157-3.375-7.535157-7.535156v-98.070313c0-4.160156 3.375-7.535156 7.535157-7.535156 4.164062 0 7.539062 3.375 7.539062 7.535156v98.070313c0 4.160156-3.375 7.535156-7.539062 7.535156zm0 0" fill="#bd8b8c"/><path d="m11.808594 222.128906h476.804687v279.824219c0 5.550781-4.496093 10.046875-10.046875 10.046875h-456.710937c-5.550781 0-10.046875-4.496094-10.046875-10.046875zm0 0" fill="#fdedd3"/><path d="m447.414062 222.128906v279.824219c0 5.550781-4.496093 10.046875-10.046874 10.046875h41.199218c5.550782 0 10.046875-4.496094 10.046875-10.046875v-279.824219zm0 0" fill="#fae3be"/><path d="m274.832031 512h-49.238281v-97.632812c0-7.1875 3.136719-14.015626 8.597656-18.691407 9.21875-7.902343 22.824219-7.902343 32.042969 0 5.457031 4.675781 8.597656 11.503907 8.597656 18.691407zm0 0" fill="#bd8b8c"/><path d="m328.085938 263.871094h30.148437v226.09375h-30.148437zm0 0" fill="#fedba8"/><path d="m143.191406 263.871094h30.148438v226.09375h-30.148438zm0 0" fill="#fedba8"/><path d="m491.675781 224.136719h-483.9375c-4.273437 0-7.738281-3.464844-7.738281-7.738281v-27.648438c0-4.273438 3.464844-7.738281 7.738281-7.738281h483.9375c4.273438 0 7.738281 3.464843 7.738281 7.738281v27.648438c.003907 4.273437-3.460937 7.738281-7.738281 7.738281zm0 0" fill="#bd8b8c"/><path d="m491.675781 181.007812h-40.191406c4.273437 0 7.738281 3.464844 7.738281 7.742188v27.648438c0 4.273437-3.464844 7.738281-7.738281 7.738281h40.191406c4.273438 0 7.738281-3.464844 7.738281-7.738281v-27.648438c.003907-4.277344-3.460937-7.742188-7.738281-7.742188zm0 0" fill="#ae7374"/><path d="m119.078125 260.273438v-36.09375h262.265625v36.09375c0 3.375-2.734375 6.109374-6.105469 6.109374h-250.054687c-3.371094 0-6.105469-2.734374-6.105469-6.109374zm0 0" fill="#956465"/><path d="m25.75 180.96875 61.535156-44.496094c2.457032-1.773437 5.414063-2.730468 8.445313-2.730468h308.960937c3.03125 0 5.988282.957031 8.445313 2.730468l61.535156 44.496094zm0 0" fill="#fdedd3"/><path d="m244.273438 77.457031-153.316407 103.511719h318.507813l-153.316406-103.511719c-3.589844-2.421875-8.285157-2.421875-11.875 0zm0 0" fill="#fedba8"/><path d="m272.316406 325.667969c0 12.210937-9.894531 22.109375-22.105468 22.109375-12.210938 0-22.105469-9.898438-22.105469-22.109375 0-12.207031 9.894531-22.105469 22.105469-22.105469 12.210937 0 22.105468 9.898438 22.105468 22.105469zm0 0" fill="#9cbee4"/><path d="m196.449219 512h-77.371094v-22.738281c0-2.425781 1.964844-4.394531 4.390625-4.394531h68.589844c2.425781 0 4.390625 1.96875 4.390625 4.394531zm0 0" fill="#956465"/><path d="m381.34375 512h-77.371094v-22.738281c0-2.425781 1.964844-4.394531 4.390625-4.394531h68.589844c2.425781 0 4.390625 1.96875 4.390625 4.394531zm0 0" fill="#956465"/><g fill="#9cbee4"><path d="m436.695312 349.738281v-54.984375c0-7.539062-6.109374-13.648437-13.648437-13.648437s-13.648437 6.109375-13.648437 13.648437v54.984375zm0 0"/><path d="m436.695312 459.269531v-54.984375c0-7.539062-6.109374-13.648437-13.648437-13.648437s-13.648437 6.109375-13.648437 13.648437v54.984375zm0 0"/><path d="m89.011719 349.738281v-54.984375c0-7.539062-6.109375-13.648437-13.648438-13.648437-7.539062 0-13.648437 6.109375-13.648437 13.648437v54.984375zm0 0"/><path d="m89.011719 459.269531v-54.984375c0-7.539062-6.109375-13.648437-13.648438-13.648437-7.539062 0-13.648437 6.109375-13.648437 13.648437v54.984375zm0 0"/></g></svg>