<svg id="Layer_1" enable-background="new 0 0 512 512" height="512" viewBox="0 0 512 512" width="512" xmlns="http://www.w3.org/2000/svg"><g><path d="m261.929 325.676-114.541 48.936-114.54-48.936c-19.399-8.288-31.545-27.821-30.398-48.885l5.279-96.947c3.229-59.303 42.576-110.523 99.042-128.93l3.9-1.271c11.856-3.865 24.247-5.833 36.717-5.833 12.47 0 24.861 1.969 36.717 5.833l3.9 1.271c56.466 18.407 95.813 69.627 99.042 128.93l5.279 96.947c1.148 21.064-10.998 40.597-30.397 48.885z" fill="#eaf6ff"/><path d="m292.327 276.791-5.279-96.947c-3.145-57.752-40.549-107.824-94.654-127.405 37.559 24.67 62.13 66.07 64.654 112.405l5.279 96.947c1.147 21.064-10.999 40.598-30.398 48.886l-114.541 48.936 30 15 114.541-48.936c19.399-8.288 31.545-27.822 30.398-48.886z" fill="#d8ecfe"/><path d="m512 472.047v-97.147c0-29.315-19.86-54.905-48.258-62.181l-54.699-14.015c-7.099-1.819-12.065-8.217-12.065-15.545v-36.145h-78.762v36.145c0 7.329-4.965 13.726-12.065 15.545l-54.699 14.015c-28.398 7.276-48.258 32.866-48.258 62.181v107.449h298.503c5.691 0 10.303-4.613 10.303-10.302z" fill="#eaf6ff"/><g><path d="m410.325 322.404 22.511 5.768c28.398 7.276 48.258 32.866 48.258 62.181v91.996h20.604c5.69 0 10.302-4.613 10.302-10.302v-97.147c0-29.315-19.86-54.905-48.258-62.181l-38.471-9.857z" fill="#d8ecfe"/></g><path d="m357.598 333.743 41.92-41.922c-1.617-2.52-2.539-5.505-2.539-8.663v-36.145h-78.762v36.145c0 3.158-.922 6.143-2.539 8.663z" fill="#ffcebf"/><path d="m399.518 291.821c-1.617-2.52-2.539-5.505-2.539-8.663v-36.145l-30.905 15.453v36.145c0 7.073 4.624 13.278 11.328 15.338z" fill="#ffb09e"/><path d="m330.692 482.349 12.76-133.145h28.291l12.76 133.145z" fill="#f58a97"/><path d="m386.533 345.594-23.262 23.262c-3.133 3.133-8.214 3.133-11.347 0l-23.262-23.262 28.936-11.851z" fill="#f07281"/><path d="m425.271 302.861-16.228-4.158c-4.04-1.035-7.385-3.556-9.521-6.885l-41.924 41.924 20.428 20.428c2.402 2.402 6.37 2.139 8.433-.56z" fill="#d8ecfe"/><path d="m407.225 298.107c-1.79-.762-3.811-1.742-5.91-3.987-.666-.711-1.267-1.481-1.793-2.302l-22.117 22.117c.244.075.484.158.733.221l32.188 8.247 14.945-19.542-16.227-4.158c-.478-.123-.945-.27-1.403-.433-.142-.049-.277-.11-.416-.163z" fill="#c4e2ff"/><path d="m289.925 302.861 16.228-4.158c4.04-1.035 7.385-3.556 9.521-6.885l41.924 41.924-20.428 20.428c-2.402 2.402-6.37 2.139-8.433-.56z" fill="#d8ecfe"/><g><path d="m449.954 153.425h-184.712v-68.202c0-22.157 17.962-40.119 40.119-40.119h104.475c22.157 0 40.119 17.962 40.119 40.119v68.202z" fill="#e19974"/><path d="m409.835 45.104h-30.905c22.157 0 40.119 17.962 40.119 40.119v68.202h30.905v-68.202c0-22.157-17.962-40.119-40.119-40.119z" fill="#dc8758"/><path d="m407.119 85.037c11.736-10.857 20.843-21.673 27.784-31.126-6.868-5.506-15.58-8.807-25.068-8.807h-104.475c-22.157 0-40.119 17.962-40.119 40.119v68.202h31.64l84.787-48.143c7.872-5.357 16.56-12.02 25.451-20.245z" fill="#dc8758"/><path d="m417.625 74.633c6.853-7.26 12.566-14.306 17.277-20.722-1.688-1.353-3.488-2.571-5.383-3.642-4.717-2.629-10.859-4.834-17.757-5.117-.639-.03-1.281-.048-1.927-.048h-30.905c18.49 0 34.049 12.512 38.695 29.529z" fill="#d77f4a"/><g><path d="m449.952 141.394v49.254c0 51.117-41.527 92.53-92.685 92.355-13.846-.041-27.063-3.234-38.941-8.922-31.142-14.896-53.085-46.925-53.085-84.434v-48.254c18.42.051 46.08-2.277 76.676-14.598 16.174-6.521 29.422-14.32 39.755-21.51 4.265 6.16 13.124 17.214 28.227 25.6 3.101 1.72 6.16 3.163 9.148 4.368h.01c13.135 5.317 24.704 6.09 30.895 6.141z" fill="#ffcebf"/></g><path d="m449.952 141.394v49.254c0 51.117-41.527 92.53-92.685 92.355-13.846-.041-27.063-3.234-38.941-8.922 5.831.011 14.093-.37 23.797-2.163 13.722-2.544 37.457-6.954 54.857-24.899 15.752-16.267 22.066-35.702 22.066-56.371 0-16.048 0-37.222 0-49.254v-6.14h.01c13.136 5.316 24.705 6.089 30.896 6.14z" fill="#ffb09e"/><g><g><path d="m399.722 182.362c-4.268 0-7.726-3.459-7.726-7.726v-14.903c0-4.268 3.459-7.726 7.726-7.726 4.268 0 7.726 3.459 7.726 7.726v14.903c.001 4.267-3.458 7.726-7.726 7.726z" fill="#407093"/></g><g><path d="m315.473 182.362c-4.268 0-7.726-3.459-7.726-7.726v-14.903c0-4.268 3.459-7.726 7.726-7.726s7.726 3.459 7.726 7.726v14.903c0 4.267-3.459 7.726-7.726 7.726z" fill="#407093"/></g></g><g><path d="m357.603 244.358c-8.315 0-14.488-3.466-17.492-5.593-3.483-2.466-4.307-7.288-1.841-10.771 2.465-3.483 7.286-4.308 10.771-1.841 1.54 1.091 4.76 2.892 9.087 2.742 3.818-.137 6.663-1.774 8.02-2.736 3.48-2.472 8.302-1.653 10.773 1.827 2.471 3.479 1.653 8.302-1.827 10.773-3.376 2.398-8.966 5.313-16.411 5.579-.365.014-.725.02-1.08.02z" fill="#ffb09e"/></g></g><g><g><path d="m10.302 482.349c-5.69 0-10.302-4.613-10.302-10.302v-94.27c0-20.677 13.048-39.036 32.417-45.631l68.872-23.445c6.456-2.19 10.803-8.313 10.803-15.205v-26.133h70.593v26.133c0 6.892 4.347 13.014 10.803 15.205l68.872 23.445c19.369 6.596 32.417 24.954 32.417 45.631v94.27c0 5.69-4.612 10.302-10.302 10.302z" fill="#ffcebf"/><g><path d="m262.36 332.145-68.872-23.445c-6.456-2.191-10.803-8.313-10.803-15.205v-26.134h-70.593v15.453h39.688v26.134c0 6.892 4.347 13.014 10.803 15.205l68.872 23.445c19.369 6.596 32.417 24.955 32.417 45.632v89.119h20.604c5.69 0 10.302-4.613 10.302-10.302v-94.27c-.001-20.677-13.049-39.036-32.418-45.632z" fill="#ffb09e"/></g><g><ellipse cx="147.389" cy="57.739" fill="#407093" rx="33.981" ry="28.087"/><path d="m147.389 29.651c-5.567 0-10.816 1.114-15.453 3.075 10.996 4.651 18.528 14.102 18.528 25.012 0 10.911-7.532 20.362-18.528 25.013 4.637 1.961 9.886 3.074 15.453 3.074 18.767 0 33.981-12.575 33.981-28.088s-15.214-28.086-33.981-28.086z" fill="#365e7d"/><path d="m231.725 183.568h-168.672v-22.937c0-46.577 37.758-84.336 84.336-84.336 46.577 0 84.336 37.758 84.336 84.336z" fill="#407093"/><path d="m147.389 76.295c-5.281 0-10.441.509-15.453 1.438 39.193 7.262 68.883 41.602 68.883 82.898v22.937h30.905v-22.937c.001-46.577-37.758-84.336-84.335-84.336z" fill="#365e7d"/><path d="m147.389 139.288c6.315-5.437 15.385-14.603 22.794-28.253 5.823-10.727 8.693-20.676 10.191-27.968l-.133-.134c-10.096-4.275-21.198-6.639-32.852-6.639-46.577 0-84.336 37.759-84.336 84.336v22.937h54.15l24.58-6.629z" fill="#365e7d"/><path d="m135.696 77.12c-1.261.178-2.513.382-3.757.612-.001.001-.002.001-.004.001 16.685 3.092 31.635 11.103 43.318 22.456 2.578-6.487 4.144-12.37 5.12-17.121l-.133-.134c-4.97-2.104-10.185-3.739-15.588-4.864-2.524-.526-5.071-.92-7.639-1.212-3.191-.363-6.403-.558-9.625-.562-3.913-.006-7.827.278-11.692.824z" fill="#2b4d66"/><g><g><path d="m231.725 172.642v34.382c0 47.218-37.92 85.477-84.634 85.313-46.611-.163-84.038-39.088-84.038-86.239v-33.456c13.503-1.041 33.336-4.321 54.876-14.713 12.152-5.863 21.936-12.583 29.46-18.641 9.675 6.378 21.748 13.255 36.189 19.319 18.173 7.63 34.787 11.743 48.147 14.035z" fill="#ffcebf"/></g><path d="m200.819 172.641c0 10.927.018 32.312-.612 40.884-.811 11.022-2.566 21.977-10.72 36.23-19.018 33.238-71.14 34.584-77.395 34.664 6.124 2.858 15.482 6.365 27.354 7.528 0 0 3.926.377 7.645.39 46.714.163 84.634-38.096 84.634-85.314 0-15.166 0-19.215 0-34.382-8.953-1.536-19.367-3.889-30.732-7.571z" fill="#ffb09e"/><g><g><path d="m185.855 211.079c-4.267 0-7.726-3.459-7.726-7.726v-13.767c0-4.268 3.459-7.726 7.726-7.726s7.726 3.459 7.726 7.726v13.767c0 4.267-3.459 7.726-7.726 7.726z" fill="#407093"/></g><g><path d="m108.922 211.079c-4.267 0-7.726-3.459-7.726-7.726v-13.767c0-4.268 3.459-7.726 7.726-7.726s7.726 3.459 7.726 7.726v13.767c0 4.267-3.459 7.726-7.726 7.726z" fill="#407093"/></g></g><g><path d="m147.394 257.23c-7.798 0-13.581-3.284-16.395-5.299-3.469-2.485-4.268-7.311-1.783-10.781 2.485-3.467 7.312-4.266 10.78-1.783 1.334.955 4.126 2.513 7.85 2.401 3.291-.12 5.754-1.552 6.929-2.396 3.467-2.488 8.294-1.695 10.782 1.771 2.489 3.467 1.696 8.294-1.77 10.783-3.164 2.272-8.401 5.032-15.381 5.286-.341.012-.679.018-1.012.018z" fill="#ffb09e"/></g></g></g></g><path d="m243.629 482.349v-21.052c0-9.584.887-19.15 2.706-28.56.543-2.81.957-5.659.979-7.886.293-29.649-23.026-53.618-52.672-54.101-17.146-.28-32.468 7.498-42.461 19.793-2.478 3.049-7.143 2.994-9.625-.052-10.01-12.282-25.348-20.042-42.488-19.74-29.63.521-52.912 24.497-52.603 54.131.032 3.044.318 6.027.838 8.931 1.734 9.682 2.847 19.464 2.847 29.299v19.237z" fill="#eaf6ff"/><g><path d="m194.642 370.749c-5.67-.093-11.133.712-16.277 2.255 22.328 6.649 38.287 27.293 38.044 51.847-.022 2.227-.436 5.075-.979 7.886-1.819 9.409-2.706 18.976-2.706 28.559v21.052h30.905v-21.052c0-9.583.887-19.15 2.706-28.559.543-2.811.957-5.659.979-7.886.293-29.65-23.026-53.618-52.672-54.102z" fill="#d8ecfe"/></g></g></g></svg>