<?xml version="1.0" encoding="iso-8859-1"?>
<!-- Generator: Adobe Illustrator 19.0.0, SVG Export Plug-In . SVG Version: 6.00 Build 0)  -->
<svg version="1.1" id="Capa_1" xmlns="http://www.w3.org/2000/svg" xmlns:xlink="http://www.w3.org/1999/xlink" x="0px" y="0px"
	 viewBox="0 0 512 512" style="enable-background:new 0 0 512 512;" xml:space="preserve">
<rect x="91.171" y="420.828" style="fill:#2276BB;" width="329.657" height="91.171"/>
<rect x="93.056" y="409.599" style="fill:#FDBE40;" width="325.876" height="34.13"/>
<g>
	<rect x="394.147" y="409.599" style="fill:#FFA912;" width="24.796" height="34.13"/>
	<rect x="93.056" y="409.599" style="fill:#FFA912;" width="24.796" height="34.13"/>
</g>
<g>
	<path style="fill:#5A6571;" d="M78.754,200.315c1.46,2.371,3.993,3.678,6.588,3.678c1.381,0,2.779-0.37,4.042-1.147
		c3.633-2.237,4.768-6.995,2.531-10.629L23.651,81.285c-2.238-3.634-6.995-4.767-10.629-2.531
		c-3.633,2.237-4.768,6.995-2.531,10.629L78.754,200.315z"/>
	<path style="fill:#5A6571;" d="M23.651,192.217c-2.238-3.634-6.995-4.768-10.629-2.531c-3.633,2.235-4.768,6.995-2.531,10.629
		l68.265,110.931c1.46,2.371,3.993,3.678,6.588,3.678c1.381,0,2.779-0.37,4.042-1.147c3.633-2.237,4.768-6.996,2.531-10.629
		L23.651,192.217z"/>
</g>
<g>
	<path style="fill:#7D8F9E;" d="M17.063,314.926c-1.381,0-2.779-0.37-4.042-1.147c-3.633-2.237-4.768-6.995-2.531-10.629
		l68.265-110.933c2.237-3.636,6.995-4.768,10.629-2.531c3.633,2.237,4.768,6.995,2.531,10.629L23.651,311.248
		C22.191,313.619,19.658,314.926,17.063,314.926z"/>
	<path style="fill:#7D8F9E;" d="M17.063,203.993c-1.381,0-2.779-0.37-4.042-1.147c-3.633-2.237-4.768-6.995-2.531-10.629
		L78.754,81.285c2.237-3.636,6.995-4.767,10.629-2.531c3.633,2.237,4.768,6.995,2.531,10.629L23.651,200.315
		C22.191,202.687,19.658,203.993,17.063,203.993z"/>
</g>
<g>
	<path style="fill:#AABFCF;" d="M17.07,323.166c-4.268,0-7.726-3.459-7.726-7.726V77.093c0-4.267,3.458-7.726,7.726-7.726
		s7.726,3.459,7.726,7.726V315.44C24.796,319.707,21.338,323.166,17.07,323.166z"/>
	<path style="fill:#AABFCF;" d="M85.337,323.166c-4.268,0-7.726-3.459-7.726-7.726V77.093c0-4.267,3.458-7.726,7.726-7.726
		s7.726,3.459,7.726,7.726V315.44C93.063,319.707,89.604,323.166,85.337,323.166z"/>
	<path style="fill:#AABFCF;" d="M85.335,188.539H17.069c-4.267,0-7.726,3.459-7.726,7.726s3.459,7.726,7.726,7.726h68.266
		c4.268,0,7.726-3.459,7.726-7.726S89.602,188.539,85.335,188.539z"/>
</g>
<path style="fill:#394D5C;" d="M96.222,511.999H6.183c-3.414,0-6.181-2.767-6.181-6.181v-192.44c0-3.414,2.767-6.181,6.181-6.181
	h90.039c3.414,0,6.181,2.767,6.181,6.181v192.44C102.403,509.232,99.635,511.999,96.222,511.999z"/>
<path style="fill:#133441;" d="M96.222,307.197H75.618c3.414,0,6.181,2.767,6.181,6.181v192.44c0,3.414-2.767,6.181-6.181,6.181
	h20.604c3.414,0,6.181-2.767,6.181-6.181v-192.44C102.403,309.964,99.635,307.197,96.222,307.197z"/>
<circle style="fill:#5A6571;" cx="51.202" cy="362.664" r="29.867"/>
<circle style="fill:#7D8F9E;" cx="51.203" cy="362.664" r="8"/>
<circle style="fill:#5A6571;" cx="51.202" cy="456.534" r="29.867"/>
<circle style="fill:#7D8F9E;" cx="51.203" cy="456.534" r="8"/>
<path style="fill:#AABFCF;" d="M318.086,512H193.915c-3.414,0-6.181-2.767-6.181-6.181v-21.772c0-3.414,2.767-6.181,6.181-6.181
	h124.172c3.414,0,6.181,2.767,6.181,6.181v21.772C324.267,509.232,321.5,512,318.086,512z"/>
<g>
	<path style="fill:#5A6571;" d="M488.351,200.315c1.46,2.371,3.993,3.678,6.588,3.678c1.381,0,2.779-0.37,4.042-1.147
		c3.633-2.237,4.768-6.995,2.531-10.629L433.248,81.285c-2.238-3.634-6.995-4.767-10.629-2.531
		c-3.633,2.237-4.768,6.995-2.531,10.629L488.351,200.315z"/>
	<path style="fill:#5A6571;" d="M433.248,192.217c-2.238-3.634-6.995-4.768-10.629-2.531c-3.633,2.235-4.768,6.995-2.531,10.629
		l68.265,110.931c1.46,2.371,3.993,3.678,6.588,3.678c1.381,0,2.779-0.37,4.042-1.147c3.633-2.237,4.768-6.996,2.531-10.629
		L433.248,192.217z"/>
</g>
<g>
	<path style="fill:#7D8F9E;" d="M426.66,314.926c-1.381,0-2.779-0.37-4.042-1.147c-3.633-2.237-4.768-6.995-2.531-10.629
		l68.265-110.933c2.237-3.636,6.995-4.768,10.629-2.531c3.633,2.237,4.768,6.995,2.531,10.629l-68.264,110.933
		C431.788,313.619,429.255,314.926,426.66,314.926z"/>
	<path style="fill:#7D8F9E;" d="M426.66,203.993c-1.381,0-2.779-0.37-4.042-1.147c-3.633-2.237-4.768-6.995-2.531-10.629
		l68.265-110.932c2.237-3.636,6.995-4.767,10.629-2.531c3.633,2.237,4.768,6.995,2.531,10.629l-68.265,110.932
		C431.788,202.687,429.255,203.993,426.66,203.993z"/>
</g>
<g>
	<path style="fill:#AABFCF;" d="M426.667,323.166c-4.268,0-7.726-3.459-7.726-7.726V77.093c0-4.267,3.458-7.726,7.726-7.726
		s7.726,3.459,7.726,7.726V315.44C434.394,319.707,430.935,323.166,426.667,323.166z"/>
	<path style="fill:#AABFCF;" d="M494.934,323.166c-4.268,0-7.726-3.459-7.726-7.726V77.093c0-4.267,3.458-7.726,7.726-7.726
		s7.726,3.459,7.726,7.726V315.44C502.66,319.707,499.201,323.166,494.934,323.166z"/>
	<path style="fill:#AABFCF;" d="M494.932,188.539h-68.266c-4.268,0-7.726,3.459-7.726,7.726s3.458,7.726,7.726,7.726h68.266
		c4.268,0,7.726-3.459,7.726-7.726S499.199,188.539,494.932,188.539z"/>
</g>
<path style="fill:#394D5C;" d="M505.818,511.999H415.78c-3.414,0-6.181-2.767-6.181-6.181v-192.44c0-3.414,2.767-6.181,6.181-6.181
	h90.038c3.414,0,6.181,2.767,6.181,6.181v192.44C511.999,509.232,509.232,511.999,505.818,511.999z"/>
<path style="fill:#133441;" d="M505.818,307.197h-20.604c3.414,0,6.181,2.767,6.181,6.181v192.44c0,3.414-2.767,6.181-6.181,6.181
	h20.604c3.414,0,6.181-2.767,6.181-6.181v-192.44C511.999,309.964,509.232,307.197,505.818,307.197z"/>
<circle style="fill:#5A6571;" cx="460.799" cy="362.664" r="29.867"/>
<circle style="fill:#7D8F9E;" cx="460.799" cy="362.664" r="8"/>
<circle style="fill:#5A6571;" cx="460.799" cy="456.534" r="29.867"/>
<circle style="fill:#7D8F9E;" cx="460.799" cy="456.534" r="8"/>
<path style="fill:#5A6571;" d="M368.396,77.606c-4.268,0-7.726,3.459-7.726,7.726v44.436c0,4.267,3.458,7.726,7.726,7.726
	s7.726-3.459,7.726-7.726V85.333C376.122,81.066,372.663,77.606,368.396,77.606z"/>
<path style="fill:#394D5C;" d="M392.533,125.647l-0.001,15.395c0,1.639-0.651,3.211-1.81,4.37L360.7,175.434
	c-2.414,2.414-6.327,2.414-8.741,0l-15.396-15.396c-2.414-2.414-2.414-6.327,0-8.741l30.021-30.022
	c1.159-1.159,2.731-1.81,4.371-1.81h15.396C389.766,119.466,392.533,122.233,392.533,125.647z"/>
<path style="fill:#FDBE40;" d="M362.362,193.565c-1.977,0-3.955-0.754-5.464-2.263l-36.204-36.205c-3.017-3.017-3.017-7.91,0-10.926
	c3.018-3.017,7.91-3.017,10.927,0l36.205,36.204c3.017,3.017,3.017,7.91,0,10.927C366.317,192.81,364.339,193.565,362.362,193.565z"
	/>
<path style="fill:#5A6571;" d="M143.604,77.606c4.268,0,7.726,3.459,7.726,7.726v44.436c0,4.267-3.458,7.726-7.726,7.726
	s-7.726-3.459-7.726-7.726V85.333C135.878,81.066,139.336,77.606,143.604,77.606z"/>
<path style="fill:#394D5C;" d="M119.467,125.647l0.001,15.395c0,1.639,0.651,3.211,1.81,4.37l30.023,30.023
	c2.414,2.414,6.327,2.414,8.741,0l15.396-15.396c2.414-2.414,2.414-6.327,0-8.741l-30.023-30.022
	c-1.159-1.159-2.731-1.81-4.371-1.81h-15.396C122.234,119.466,119.466,122.233,119.467,125.647z"/>
<path style="fill:#FDBE40;" d="M149.637,193.565c1.977,0,3.955-0.754,5.464-2.263l36.205-36.205c3.017-3.017,3.017-7.91,0-10.926
	c-3.018-3.017-7.91-3.017-10.927,0l-36.205,36.204c-3.017,3.017-3.017,7.91,0,10.927C145.682,192.81,147.66,193.565,149.637,193.565
	z"/>
<path style="fill:#5A6571;" d="M256.001,282.407c-4.268,0-7.726,3.459-7.726,7.726V384c0,4.267,3.458,7.726,7.726,7.726
	s7.726-3.459,7.726-7.726v-93.867C263.727,285.866,260.269,282.407,256.001,282.407z"/>
<path style="fill:#7D8F9E;" d="M287.064,404.136l-25.59-25.59c-0.003-0.003-0.006-0.007-0.009-0.01
	c-0.583-0.583-1.237-1.051-1.934-1.408c-1.062-0.546-2.222-0.827-3.388-0.848c-0.047-0.001-0.095-0.007-0.141-0.007
	c-0.049,0-0.099,0.006-0.148,0.007c-1.186,0.023-2.368,0.311-3.445,0.877c-0.673,0.353-1.305,0.813-1.871,1.379
	c-0.003,0.003-0.006,0.007-0.009,0.01l-25.59,25.59c-3.018,3.017-3.018,7.909-0.001,10.926c1.509,1.509,3.486,2.263,5.464,2.263
	c1.977,0,3.955-0.754,5.463-2.263l20.138-20.137l20.138,20.137c1.508,1.509,3.486,2.263,5.463,2.263
	c1.977,0,3.955-0.754,5.464-2.263C290.082,412.045,290.082,407.154,287.064,404.136z"/>
<path style="fill:#AABFCF;" d="M278.532,267.603c-3.017-3.017-7.91-3.018-10.927,0l-25.6,25.599
	c-3.018,3.017-3.018,7.909-0.001,10.926c1.509,1.509,3.486,2.263,5.464,2.263c1.977,0,3.955-0.754,5.463-2.263l25.601-25.599
	C281.549,275.513,281.549,270.622,278.532,267.603z"/>
<path style="fill:#87D0ED;" d="M324.266,17.066l181.552,0.001c3.414,0,6.181,2.767,6.181,6.181v55.904
	c0,3.414-2.767,6.181-6.181,6.181H6.181C2.767,85.333,0,82.566,0,79.152V23.248c0-3.414,2.767-6.181,6.181-6.181h181.553
	L324.266,17.066z"/>
<path style="fill:#75B1D9;" d="M505.819,17.067h-20.604c3.414,0,6.181,2.767,6.181,6.181v55.904c0,3.414-2.767,6.181-6.181,6.181
	h20.604c3.414,0,6.181-2.767,6.181-6.181V23.248C512,19.835,509.232,17.067,505.819,17.067z"/>
<path style="fill:#FDBE40;" d="M318.085,34.133h-124.17c-3.414,0-6.181-2.767-6.181-6.181V6.182c0-3.414,2.767-6.181,6.181-6.181
	h124.171c3.414,0,6.181,2.767,6.181,6.181v21.77C324.266,31.365,321.499,34.133,318.085,34.133z"/>
<path style="fill:#FFA912;" d="M318.085,0h-20.604c3.414,0,6.181,2.767,6.181,6.181v21.771c0,3.414-2.767,6.181-6.181,6.181h20.604
	c3.414,0,6.181-2.767,6.181-6.181V6.181C324.266,2.767,321.499,0,318.085,0z"/>
<path style="fill:#7D8F9E;" d="M318.086,477.866h-20.604c3.414,0,6.181,2.767,6.181,6.181v21.771c0,3.414-2.767,6.181-6.181,6.181
	h20.604c3.414,0,6.181-2.767,6.181-6.181v-21.771C324.267,480.634,321.5,477.866,318.086,477.866z"/>
<g>
</g>
<g>
</g>
<g>
</g>
<g>
</g>
<g>
</g>
<g>
</g>
<g>
</g>
<g>
</g>
<g>
</g>
<g>
</g>
<g>
</g>
<g>
</g>
<g>
</g>
<g>
</g>
<g>
</g>
</svg>
